<svg width="449" height="96" viewBox="0 0 449 96" fill="none" xmlns="http://www.w3.org/2000/svg">
<path d="M0.9375 94L29.8125 2.375H40.5L71.25 94H59.875L51.125 66.25H19.75L11.5 94H0.9375ZM22.625 56.375H48.0625L40.25 31C37.8333 23.2083 36.0625 16.875 34.9375 12C33.9792 17.875 32.625 23.7083 30.875 29.5L22.625 56.375ZM88.5625 94L68.625 2.375H78.8125L90.25 62.4375C91.4583 68.6042 92.5208 74.8542 93.4375 81.1875L96.8125 64.25L111.125 2.375H123.125L133.875 48.75C136.5 60.0417 138.458 70.8542 139.75 81.1875C140.708 75.2292 141.938 68.5833 143.438 61.25L155.25 2.375H165.25L144.625 94H135.062L119.188 24.1875L116.812 13.4375C116.104 17.4375 115.375 21.0208 114.625 24.1875L98.6875 94H88.5625ZM162.312 94L191.188 2.375H201.875L232.625 94H221.25L212.5 66.25H181.125L172.875 94H162.312ZM184 56.375H209.438L201.625 31C199.208 23.2083 197.438 16.875 196.312 12C195.354 17.875 194 23.7083 192.25 29.5L184 56.375ZM240.5 94V2.375H273.812C280.771 2.375 285.896 3.22917 289.188 4.9375C292.521 6.64583 295.25 9.5 297.375 13.5C299.5 17.4583 300.562 22.0625 300.562 27.3125C300.562 34.2292 298.75 39.8333 295.125 44.125C291.542 48.4167 286.312 51.1458 279.438 52.3125C282.229 53.9792 284.354 55.6667 285.812 57.375C288.771 60.875 291.375 64.7708 293.625 69.0625L306.75 94H294.25L284.25 74.9375C280.375 67.4792 277.438 62.4583 275.438 59.875C273.479 57.2917 271.562 55.5625 269.688 54.6875C267.854 53.7708 265.271 53.3125 261.938 53.3125H250.438V94H240.5ZM250.438 42.8125H271.812C276.479 42.8125 280.021 42.25 282.438 41.125C284.854 40 286.771 38.2292 288.188 35.8125C289.604 33.3958 290.312 30.5833 290.312 27.375C290.312 22.75 288.958 19.125 286.25 16.5C283.542 13.8333 279.521 12.5 274.188 12.5H250.438V42.8125ZM316.062 94V2.375H342C348.417 2.375 353.292 2.9375 356.625 4.0625C361 5.52083 364.792 8.1875 368 12.0625C371.208 15.9375 373.708 20.8333 375.5 26.75C377.292 32.625 378.188 39.6042 378.188 47.6875C378.188 58.0625 376.667 66.875 373.625 74.125C370.583 81.3333 366.667 86.4583 361.875 89.5C357.125 92.5 350.896 94 343.188 94H316.062ZM326 83.1875H342C348.458 83.1875 353.354 82.1458 356.688 80.0625C360.021 77.9375 362.583 74.5417 364.375 69.875C366.75 63.6667 367.938 56.2292 367.938 47.5625C367.938 38.2708 366.667 30.9792 364.125 25.6875C361.625 20.3542 358.396 16.7917 354.438 15C351.771 13.7917 347.542 13.1875 341.75 13.1875H326V83.1875ZM388.688 64.5625L398.062 63.5625C398.562 68.6042 399.688 72.5417 401.438 75.375C403.229 78.1667 405.771 80.4167 409.062 82.125C412.354 83.8333 416.062 84.6875 420.188 84.6875C426.104 84.6875 430.688 83.25 433.938 80.375C437.229 77.4583 438.875 73.6875 438.875 69.0625C438.875 66.3542 438.271 64 437.062 62C435.896 59.9583 434.104 58.2917 431.688 57C429.312 55.7083 424.146 53.8958 416.188 51.5625C409.104 49.4792 404.062 47.375 401.062 45.25C398.062 43.125 395.729 40.4375 394.062 37.1875C392.396 33.8958 391.562 30.1875 391.562 26.0625C391.562 18.6458 393.958 12.5833 398.75 7.875C403.542 3.16667 410 0.8125 418.125 0.8125C423.708 0.8125 428.583 1.91667 432.75 4.125C436.958 6.33333 440.208 9.5 442.5 13.625C444.833 17.75 446.083 22.6042 446.25 28.1875L436.688 29.0625C436.188 23.1042 434.396 18.6875 431.312 15.8125C428.271 12.9375 423.979 11.5 418.438 11.5C412.812 11.5 408.521 12.7708 405.562 15.3125C402.604 17.8125 401.125 21.0625 401.125 25.0625C401.125 28.7708 402.208 31.6458 404.375 33.6875C406.542 35.7292 411.417 37.7917 419 39.875C426.417 41.9167 431.625 43.6875 434.625 45.1875C439.208 47.5208 442.667 50.6042 445 54.4375C447.333 58.2292 448.5 62.7708 448.5 68.0625C448.5 73.3125 447.271 78.1042 444.812 82.4375C442.354 86.7292 439 90 434.75 92.25C430.542 94.5 425.458 95.625 419.5 95.625C410.208 95.625 402.792 92.8333 397.25 87.25C391.75 81.6667 388.896 74.1042 388.688 64.5625Z" fill="black"/>
</svg>
