<svg width="1125" height="336" viewBox="0 0 1125 336" fill="none" xmlns="http://www.w3.org/2000/svg">
<g filter="url(#filter0_g_4097_327)">
<mask id="path-1-outside-1_4097_327" maskUnits="userSpaceOnUse" x="14" y="14" width="1097" height="308" fill="black">
<rect fill="white" x="14" y="14" width="1097" height="308"/>
<path d="M17 314.02V21.9802H61.2665C77.7624 21.9802 88.5453 23.3747 93.6152 26.1636C101.712 30.679 108.371 40.3074 113.592 55.0488C118.889 69.7902 121.537 88.7814 121.537 112.022C121.537 133.139 119.267 150.868 114.727 165.211C110.187 179.421 104.512 189.448 97.7013 195.292C90.8911 201.002 79.1623 203.858 62.5151 203.858H44.468V314.02H17ZM44.468 71.3839V154.255H59.6775C69.8928 154.255 76.8166 152.993 80.4487 150.47C84.1565 147.946 87.1833 143.431 89.529 136.923C91.8748 130.283 93.0477 122.182 93.0477 112.62C93.0477 102.925 91.8369 94.7577 89.4155 88.1174C86.9941 81.4771 84.0052 77.0281 80.4487 74.7704C76.8923 72.5128 69.3632 71.3839 57.8614 71.3839H44.468Z"/>
<path d="M138.676 169.793C138.676 134.998 141.59 106.378 147.416 83.934C153.318 61.3571 160.999 44.5572 170.457 33.5343C179.916 22.5114 191.38 17 204.849 17C224.372 17 240.262 30.0814 252.521 56.2441C264.855 82.4068 271.022 119.659 271.022 168C271.022 216.872 264.514 255.054 251.499 282.545C240.073 306.848 224.561 319 204.963 319C185.213 319 169.625 306.981 158.199 282.943C145.184 255.453 138.676 217.736 138.676 169.793ZM167.052 167.801C167.052 201.401 170.684 226.634 177.949 243.5C185.213 260.234 194.217 268.6 204.963 268.6C215.783 268.6 224.75 260.3 231.863 243.699C238.976 226.966 242.532 201.334 242.532 166.805C242.532 132.939 239.052 107.905 232.09 91.7032C225.204 75.5009 216.162 67.3997 204.963 67.3997C193.763 67.3997 184.645 75.5673 177.608 91.9024C170.571 108.237 167.052 133.537 167.052 167.801Z"/>
<path d="M292.701 314.02V21.9802H350.702C365.533 21.9802 376.126 24.6363 382.483 29.9485C388.839 35.128 394.06 44.2252 398.146 57.2401C402.232 70.1222 404.275 85.5941 404.275 103.656C404.275 126.498 401.135 144.892 394.855 158.836C388.65 172.781 379.796 181.546 368.295 185.132C374.197 192.569 379.078 200.737 382.937 209.635C386.796 218.4 392.055 234.204 398.714 257.046L415.285 314.02H382.483L362.506 250.472C355.317 227.497 350.437 213.154 347.864 207.443C345.291 201.6 342.567 197.616 339.692 195.491C336.816 193.233 332.2 192.104 325.844 192.104H320.169V314.02H292.701ZM320.169 145.489H340.6C353.085 145.489 361.03 144.56 364.436 142.701C367.841 140.708 370.603 136.791 372.721 130.947C374.84 125.104 375.899 117.335 375.899 107.64C375.899 98.3434 374.84 90.9063 372.721 85.3285C370.603 79.6179 367.727 75.7001 364.095 73.5752C361.522 72.1143 354.069 71.3839 341.735 71.3839H320.169V145.489Z"/>
<path d="M460.914 314.02V71.3839H420.393V21.9802H528.789V71.3839H488.382V314.02H460.914Z"/>
<path d="M546.836 314.02V21.9802H640.364V71.3839H574.304V140.509H631.397V189.913H574.304V314.02H546.836Z"/>
<path d="M657.616 169.793C657.616 134.998 660.53 106.378 666.356 83.934C672.258 61.3571 679.939 44.5572 689.397 33.5343C698.856 22.5114 710.32 17 723.789 17C743.312 17 759.202 30.0814 771.461 56.2441C783.795 82.4068 789.962 119.659 789.962 168C789.962 216.872 783.454 255.054 770.439 282.545C759.013 306.848 743.501 319 723.903 319C704.153 319 688.565 306.981 677.139 282.943C664.124 255.453 657.616 217.736 657.616 169.793ZM685.992 167.801C685.992 201.401 689.624 226.634 696.889 243.5C704.153 260.234 713.158 268.6 723.903 268.6C734.723 268.6 743.69 260.3 750.803 243.699C757.916 226.966 761.472 201.334 761.472 166.805C761.472 132.939 757.992 107.905 751.03 91.7032C744.144 75.5009 735.102 67.3997 723.903 67.3997C712.704 67.3997 703.585 75.5673 696.548 91.9024C689.511 108.237 685.992 133.537 685.992 167.801Z"/>
<path d="M812.322 314.02V24.3707H839.79V264.815H908.346V314.02H812.322Z"/>
<path d="M927.188 314.02V21.9802H954.656V314.02H927.188Z"/>
<path d="M975.654 169.793C975.654 134.998 978.568 106.378 984.394 83.934C990.296 61.3571 997.977 44.5572 1007.44 33.5343C1016.89 22.5114 1028.36 17 1041.83 17C1061.35 17 1077.24 30.0814 1089.5 56.2441C1101.83 82.4068 1108 119.659 1108 168C1108 216.872 1101.49 255.054 1088.48 282.545C1077.05 306.848 1061.54 319 1041.94 319C1022.19 319 1006.6 306.981 995.177 282.943C982.162 255.453 975.654 217.736 975.654 169.793ZM1004.03 167.801C1004.03 201.401 1007.66 226.634 1014.93 243.5C1022.19 260.234 1031.2 268.6 1041.94 268.6C1052.76 268.6 1061.73 260.3 1068.84 243.699C1075.95 226.966 1079.51 201.334 1079.51 166.805C1079.51 132.939 1076.03 107.905 1069.07 91.7032C1062.18 75.5009 1053.14 67.3997 1041.94 67.3997C1030.74 67.3997 1021.62 75.5673 1014.59 91.9024C1007.55 108.237 1004.03 133.537 1004.03 167.801Z"/>
</mask>
<path d="M17 314.02V21.9802H61.2665C77.7624 21.9802 88.5453 23.3747 93.6152 26.1636C101.712 30.679 108.371 40.3074 113.592 55.0488C118.889 69.7902 121.537 88.7814 121.537 112.022C121.537 133.139 119.267 150.868 114.727 165.211C110.187 179.421 104.512 189.448 97.7013 195.292C90.8911 201.002 79.1623 203.858 62.5151 203.858H44.468V314.02H17ZM44.468 71.3839V154.255H59.6775C69.8928 154.255 76.8166 152.993 80.4487 150.47C84.1565 147.946 87.1833 143.431 89.529 136.923C91.8748 130.283 93.0477 122.182 93.0477 112.62C93.0477 102.925 91.8369 94.7577 89.4155 88.1174C86.9941 81.4771 84.0052 77.0281 80.4487 74.7704C76.8923 72.5128 69.3632 71.3839 57.8614 71.3839H44.468Z" fill="#F90052"/>
<path d="M138.676 169.793C138.676 134.998 141.59 106.378 147.416 83.934C153.318 61.3571 160.999 44.5572 170.457 33.5343C179.916 22.5114 191.38 17 204.849 17C224.372 17 240.262 30.0814 252.521 56.2441C264.855 82.4068 271.022 119.659 271.022 168C271.022 216.872 264.514 255.054 251.499 282.545C240.073 306.848 224.561 319 204.963 319C185.213 319 169.625 306.981 158.199 282.943C145.184 255.453 138.676 217.736 138.676 169.793ZM167.052 167.801C167.052 201.401 170.684 226.634 177.949 243.5C185.213 260.234 194.217 268.6 204.963 268.6C215.783 268.6 224.75 260.3 231.863 243.699C238.976 226.966 242.532 201.334 242.532 166.805C242.532 132.939 239.052 107.905 232.09 91.7032C225.204 75.5009 216.162 67.3997 204.963 67.3997C193.763 67.3997 184.645 75.5673 177.608 91.9024C170.571 108.237 167.052 133.537 167.052 167.801Z" fill="#F90052"/>
<path d="M292.701 314.02V21.9802H350.702C365.533 21.9802 376.126 24.6363 382.483 29.9485C388.839 35.128 394.06 44.2252 398.146 57.2401C402.232 70.1222 404.275 85.5941 404.275 103.656C404.275 126.498 401.135 144.892 394.855 158.836C388.65 172.781 379.796 181.546 368.295 185.132C374.197 192.569 379.078 200.737 382.937 209.635C386.796 218.4 392.055 234.204 398.714 257.046L415.285 314.02H382.483L362.506 250.472C355.317 227.497 350.437 213.154 347.864 207.443C345.291 201.6 342.567 197.616 339.692 195.491C336.816 193.233 332.2 192.104 325.844 192.104H320.169V314.02H292.701ZM320.169 145.489H340.6C353.085 145.489 361.03 144.56 364.436 142.701C367.841 140.708 370.603 136.791 372.721 130.947C374.84 125.104 375.899 117.335 375.899 107.64C375.899 98.3434 374.84 90.9063 372.721 85.3285C370.603 79.6179 367.727 75.7001 364.095 73.5752C361.522 72.1143 354.069 71.3839 341.735 71.3839H320.169V145.489Z" fill="#F90052"/>
<path d="M460.914 314.02V71.3839H420.393V21.9802H528.789V71.3839H488.382V314.02H460.914Z" fill="#F90052"/>
<path d="M546.836 314.02V21.9802H640.364V71.3839H574.304V140.509H631.397V189.913H574.304V314.02H546.836Z" fill="#F90052"/>
<path d="M657.616 169.793C657.616 134.998 660.53 106.378 666.356 83.934C672.258 61.3571 679.939 44.5572 689.397 33.5343C698.856 22.5114 710.32 17 723.789 17C743.312 17 759.202 30.0814 771.461 56.2441C783.795 82.4068 789.962 119.659 789.962 168C789.962 216.872 783.454 255.054 770.439 282.545C759.013 306.848 743.501 319 723.903 319C704.153 319 688.565 306.981 677.139 282.943C664.124 255.453 657.616 217.736 657.616 169.793ZM685.992 167.801C685.992 201.401 689.624 226.634 696.889 243.5C704.153 260.234 713.158 268.6 723.903 268.6C734.723 268.6 743.69 260.3 750.803 243.699C757.916 226.966 761.472 201.334 761.472 166.805C761.472 132.939 757.992 107.905 751.03 91.7032C744.144 75.5009 735.102 67.3997 723.903 67.3997C712.704 67.3997 703.585 75.5673 696.548 91.9024C689.511 108.237 685.992 133.537 685.992 167.801Z" fill="#F90052"/>
<path d="M812.322 314.02V24.3707H839.79V264.815H908.346V314.02H812.322Z" fill="#F90052"/>
<path d="M927.188 314.02V21.9802H954.656V314.02H927.188Z" fill="#F90052"/>
<path d="M975.654 169.793C975.654 134.998 978.568 106.378 984.394 83.934C990.296 61.3571 997.977 44.5572 1007.44 33.5343C1016.89 22.5114 1028.36 17 1041.83 17C1061.35 17 1077.24 30.0814 1089.5 56.2441C1101.83 82.4068 1108 119.659 1108 168C1108 216.872 1101.49 255.054 1088.48 282.545C1077.05 306.848 1061.54 319 1041.94 319C1022.19 319 1006.6 306.981 995.177 282.943C982.162 255.453 975.654 217.736 975.654 169.793ZM1004.03 167.801C1004.03 201.401 1007.66 226.634 1014.93 243.5C1022.19 260.234 1031.2 268.6 1041.94 268.6C1052.76 268.6 1061.73 260.3 1068.84 243.699C1075.95 226.966 1079.51 201.334 1079.51 166.805C1079.51 132.939 1076.03 107.905 1069.07 91.7032C1062.18 75.5009 1053.14 67.3997 1041.94 67.3997C1030.74 67.3997 1021.62 75.5673 1014.59 91.9024C1007.55 108.237 1004.03 133.537 1004.03 167.801Z" fill="#F90052"/>
<path d="M17 314.02V21.9802H61.2665C77.7624 21.9802 88.5453 23.3747 93.6152 26.1636C101.712 30.679 108.371 40.3074 113.592 55.0488C118.889 69.7902 121.537 88.7814 121.537 112.022C121.537 133.139 119.267 150.868 114.727 165.211C110.187 179.421 104.512 189.448 97.7013 195.292C90.8911 201.002 79.1623 203.858 62.5151 203.858H44.468V314.02H17ZM44.468 71.3839V154.255H59.6775C69.8928 154.255 76.8166 152.993 80.4487 150.47C84.1565 147.946 87.1833 143.431 89.529 136.923C91.8748 130.283 93.0477 122.182 93.0477 112.62C93.0477 102.925 91.8369 94.7577 89.4155 88.1174C86.9941 81.4771 84.0052 77.0281 80.4487 74.7704C76.8923 72.5128 69.3632 71.3839 57.8614 71.3839H44.468Z" stroke="white" stroke-width="6" mask="url(#path-1-outside-1_4097_327)"/>
<path d="M138.676 169.793C138.676 134.998 141.59 106.378 147.416 83.934C153.318 61.3571 160.999 44.5572 170.457 33.5343C179.916 22.5114 191.38 17 204.849 17C224.372 17 240.262 30.0814 252.521 56.2441C264.855 82.4068 271.022 119.659 271.022 168C271.022 216.872 264.514 255.054 251.499 282.545C240.073 306.848 224.561 319 204.963 319C185.213 319 169.625 306.981 158.199 282.943C145.184 255.453 138.676 217.736 138.676 169.793ZM167.052 167.801C167.052 201.401 170.684 226.634 177.949 243.5C185.213 260.234 194.217 268.6 204.963 268.6C215.783 268.6 224.75 260.3 231.863 243.699C238.976 226.966 242.532 201.334 242.532 166.805C242.532 132.939 239.052 107.905 232.09 91.7032C225.204 75.5009 216.162 67.3997 204.963 67.3997C193.763 67.3997 184.645 75.5673 177.608 91.9024C170.571 108.237 167.052 133.537 167.052 167.801Z" stroke="white" stroke-width="6" mask="url(#path-1-outside-1_4097_327)"/>
<path d="M292.701 314.02V21.9802H350.702C365.533 21.9802 376.126 24.6363 382.483 29.9485C388.839 35.128 394.06 44.2252 398.146 57.2401C402.232 70.1222 404.275 85.5941 404.275 103.656C404.275 126.498 401.135 144.892 394.855 158.836C388.65 172.781 379.796 181.546 368.295 185.132C374.197 192.569 379.078 200.737 382.937 209.635C386.796 218.4 392.055 234.204 398.714 257.046L415.285 314.02H382.483L362.506 250.472C355.317 227.497 350.437 213.154 347.864 207.443C345.291 201.6 342.567 197.616 339.692 195.491C336.816 193.233 332.2 192.104 325.844 192.104H320.169V314.02H292.701ZM320.169 145.489H340.6C353.085 145.489 361.03 144.56 364.436 142.701C367.841 140.708 370.603 136.791 372.721 130.947C374.84 125.104 375.899 117.335 375.899 107.64C375.899 98.3434 374.84 90.9063 372.721 85.3285C370.603 79.6179 367.727 75.7001 364.095 73.5752C361.522 72.1143 354.069 71.3839 341.735 71.3839H320.169V145.489Z" stroke="white" stroke-width="6" mask="url(#path-1-outside-1_4097_327)"/>
<path d="M460.914 314.02V71.3839H420.393V21.9802H528.789V71.3839H488.382V314.02H460.914Z" stroke="white" stroke-width="6" mask="url(#path-1-outside-1_4097_327)"/>
<path d="M546.836 314.02V21.9802H640.364V71.3839H574.304V140.509H631.397V189.913H574.304V314.02H546.836Z" stroke="white" stroke-width="6" mask="url(#path-1-outside-1_4097_327)"/>
<path d="M657.616 169.793C657.616 134.998 660.53 106.378 666.356 83.934C672.258 61.3571 679.939 44.5572 689.397 33.5343C698.856 22.5114 710.32 17 723.789 17C743.312 17 759.202 30.0814 771.461 56.2441C783.795 82.4068 789.962 119.659 789.962 168C789.962 216.872 783.454 255.054 770.439 282.545C759.013 306.848 743.501 319 723.903 319C704.153 319 688.565 306.981 677.139 282.943C664.124 255.453 657.616 217.736 657.616 169.793ZM685.992 167.801C685.992 201.401 689.624 226.634 696.889 243.5C704.153 260.234 713.158 268.6 723.903 268.6C734.723 268.6 743.69 260.3 750.803 243.699C757.916 226.966 761.472 201.334 761.472 166.805C761.472 132.939 757.992 107.905 751.03 91.7032C744.144 75.5009 735.102 67.3997 723.903 67.3997C712.704 67.3997 703.585 75.5673 696.548 91.9024C689.511 108.237 685.992 133.537 685.992 167.801Z" stroke="white" stroke-width="6" mask="url(#path-1-outside-1_4097_327)"/>
<path d="M812.322 314.02V24.3707H839.79V264.815H908.346V314.02H812.322Z" stroke="white" stroke-width="6" mask="url(#path-1-outside-1_4097_327)"/>
<path d="M927.188 314.02V21.9802H954.656V314.02H927.188Z" stroke="white" stroke-width="6" mask="url(#path-1-outside-1_4097_327)"/>
<path d="M975.654 169.793C975.654 134.998 978.568 106.378 984.394 83.934C990.296 61.3571 997.977 44.5572 1007.44 33.5343C1016.89 22.5114 1028.36 17 1041.83 17C1061.35 17 1077.24 30.0814 1089.5 56.2441C1101.83 82.4068 1108 119.659 1108 168C1108 216.872 1101.49 255.054 1088.48 282.545C1077.05 306.848 1061.54 319 1041.94 319C1022.19 319 1006.6 306.981 995.177 282.943C982.162 255.453 975.654 217.736 975.654 169.793ZM1004.03 167.801C1004.03 201.401 1007.66 226.634 1014.93 243.5C1022.19 260.234 1031.2 268.6 1041.94 268.6C1052.76 268.6 1061.73 260.3 1068.84 243.699C1075.95 226.966 1079.51 201.334 1079.51 166.805C1079.51 132.939 1076.03 107.905 1069.07 91.7032C1062.18 75.5009 1053.14 67.3997 1041.94 67.3997C1030.74 67.3997 1021.62 75.5673 1014.59 91.9024C1007.55 108.237 1004.03 133.537 1004.03 167.801Z" stroke="white" stroke-width="6" mask="url(#path-1-outside-1_4097_327)"/>
</g>
<defs>
<filter id="filter0_g_4097_327" x="0.5" y="0.5" width="1124" height="335" filterUnits="userSpaceOnUse" color-interpolation-filters="sRGB">
<feFlood flood-opacity="0" result="BackgroundImageFix"/>
<feBlend mode="normal" in="SourceGraphic" in2="BackgroundImageFix" result="shape"/>
<feTurbulence type="fractalNoise" baseFrequency="9.0909090042114258 9.0909090042114258" numOctaves="3" seed="2625" />
<feDisplacementMap in="shape" scale="27" xChannelSelector="R" yChannelSelector="G" result="displacedImage" width="100%" height="100%" />
<feMerge result="effect1_texture_4097_327">
<feMergeNode in="displacedImage"/>
</feMerge>
</filter>
</defs>
</svg>
